<svg width="21" height="16" viewBox="0 0 21 16" fill="none" xmlns="http://www.w3.org/2000/svg">
<path d="M0 3.13648V15.3118C0 15.7098 0.401836 15.9819 0.771328 15.8342L5.625 13.625V0.125L0.707344 2.09199C0.498578 2.17549 0.319616 2.31962 0.193539 2.50579C0.0674608 2.69197 4.99995e-05 2.91164 0 3.13648H0ZM6.75 13.625L13.5 15.875V2.375L6.75 0.125V13.625ZM19.4787 0.165781L14.625 2.375V15.875L19.5427 13.908C19.7514 13.8245 19.9304 13.6804 20.0565 13.4942C20.1826 13.3081 20.25 13.0884 20.25 12.8635V0.688203C20.25 0.290234 19.8482 0.018125 19.4787 0.165781Z" fill="#E11383"/>
</svg>
